<svg xmlns="http://www.w3.org/2000/svg">
  <symbol viewBox="0 0 40 50" id="details">
    <g id="fill-details" transform="translate(-163 -239)">
    <path id="Path_4269" data-name="Path 4269" d="M0,0H31.081L40,9.026V50H0Z" transform="translate(163 239)" fill="#2464b3"/>
    <path id="Path_4270" data-name="Path 4270" d="M0,0,3.906,3.984,8.875,8.953H0Z" transform="translate(193.125 240)" fill="#fff"/>
    <line id="Line_177" data-name="Line 177" x2="27.018" transform="translate(169.5 253.5)" fill="none" stroke="#fff" stroke-linecap="round" stroke-width="1.5"/>
    <line id="Line_178" data-name="Line 178" x2="27.018" transform="translate(169.5 260.5)" fill="none" stroke="#fff" stroke-linecap="round" stroke-width="1.5"/>
    <line id="Line_179" data-name="Line 179" x2="27.018" transform="translate(169.5 267.5)" fill="none" stroke="#fff" stroke-linecap="round" stroke-width="1.5"/>
    <line id="Line_180" data-name="Line 180" x2="20.496" transform="translate(169.5 274.5)" fill="none" stroke="#fff" stroke-linecap="round" stroke-width="1.5"/>
  </g>
  </symbol>

  <symbol viewBox="0 0 36 43" id="submit">
    <g id="submit-details" transform="translate(-1080 -443)">
    <rect id="Rectangle_1259" data-name="Rectangle 1259" width="32" height="43" rx="2" transform="translate(1084 443)" fill="#2565ad"/>
    <line id="Line_181" data-name="Line 181" x2="10" transform="translate(1100.5 452.5)" fill="none" stroke="#fff" stroke-linecap="round" stroke-width="1.5"/>
    <line id="Line_184" data-name="Line 184" x2="10" transform="translate(1100.5 463)" fill="none" stroke="#fff" stroke-linecap="round" stroke-width="1.5"/>
    <line id="Line_186" data-name="Line 186" x2="10" transform="translate(1100.5 473.5)" fill="none" stroke="#fff" stroke-linecap="round" stroke-width="1.5"/>
    <line id="Line_182" data-name="Line 182" x2="6" transform="translate(1100.5 456.5)" fill="none" stroke="#fff" stroke-linecap="round" stroke-width="1.5"/>
    <line id="Line_183" data-name="Line 183" x2="6" transform="translate(1100.5 467)" fill="none" stroke="#fff" stroke-linecap="round" stroke-width="1.5"/>
    <line id="Line_185" data-name="Line 185" x2="6" transform="translate(1100.5 477.5)" fill="none" stroke="#fff" stroke-linecap="round" stroke-width="1.5"/>
    <rect id="Rectangle_1260" data-name="Rectangle 1260" width="8" height="7" rx="2" transform="translate(1090 451)" fill="#fff"/>
    <rect id="Rectangle_1261" data-name="Rectangle 1261" width="8" height="7" rx="2" transform="translate(1090 462)" fill="#fff"/>
    <path id="Path_4271" data-name="Path 4271" d="M-2096.687-2210.061l2.7,2.7,4.55-4.55" transform="translate(3187 2685)" fill="none" stroke="#fff" stroke-linecap="round" stroke-linejoin="round" stroke-width="1"/>
    <g id="Rectangle_1262" data-name="Rectangle 1262" transform="translate(1080 455)" fill="none" stroke="#2565ad" stroke-width="1">
      <path d="M2,0H6A0,0,0,0,1,6,0V31a0,0,0,0,1,0,0H3a3,3,0,0,1-3-3V2A2,2,0,0,1,2,0Z" stroke="none"/>
      <path d="M2,.5H5.5a0,0,0,0,1,0,0v30a0,0,0,0,1,0,0H3A2.5,2.5,0,0,1,.5,28V2A1.5,1.5,0,0,1,2,.5Z" fill="none"/>
    </g>
  </g>
  </symbol>

  <symbol viewBox="0 0 48 46.275" id="valuation" >
    <g id="valuation" transform="translate(-1246 -482.725)">
    <g id="Rectangle_1263" data-name="Rectangle 1263" transform="translate(1246 523)" fill="none" stroke="#2565ad" stroke-width="1">
      <path d="M1,0H47a1,1,0,0,1,1,1V4a2,2,0,0,1-2,2H2A2,2,0,0,1,0,4V1A1,1,0,0,1,1,0Z" stroke="none"/>
      <path d="M1,.5H47a.5.5,0,0,1,.5.5V4A1.5,1.5,0,0,1,46,5.5H2A1.5,1.5,0,0,1,.5,4V1A.5.5,0,0,1,1,.5Z" fill="none"/>
    </g>
    <g id="Rectangle_1264" data-name="Rectangle 1264" transform="translate(1248 493)" fill="none" stroke="#2565ad" stroke-width="1">
      <path d="M2,0H42a2,2,0,0,1,2,2V31a0,0,0,0,1,0,0H0a0,0,0,0,1,0,0V2A2,2,0,0,1,2,0Z" stroke="none"/>
      <path d="M2,.5H42A1.5,1.5,0,0,1,43.5,2V30.5a0,0,0,0,1,0,0H.5a0,0,0,0,1,0,0V2A1.5,1.5,0,0,1,2,.5Z" fill="none"/>
    </g>
    <path id="Rectangle_1265" data-name="Rectangle 1265" d="M2,0H36a2,2,0,0,1,2,2V28a0,0,0,0,1,0,0H0a0,0,0,0,1,0,0V2A2,2,0,0,1,2,0Z" transform="translate(1251 496)" fill="#2565ad"/>
    <path id="Path_4275" data-name="Path 4275" d="M-1934.672-2164.264h5.057v-15.569h2.129l-4.865-4.865-4.865,4.865h2.544Z" transform="translate(3192 2687.558)" fill="#fff" stroke="#2565ad" stroke-width="1"/>
    <path id="Path_4276" data-name="Path 4276" d="M-1924.564-2162.208h5.036v-26.761h1.843l-4.5-4.812-4.5,4.812h2.487Z" transform="translate(3192 2685.502)" fill="#fff" stroke="#2565ad" stroke-width="1"/>
    <path id="Path_4277" data-name="Path 4277" d="M-1914.307-2163.706h5.138v-34.925h1.965l-4.862-4.932-4.863,4.932h2.621Z" transform="translate(3192 2687)" fill="#fff" stroke="#2565ad" stroke-width="1"/>
  </g>
  </symbol>
</svg>
