<svg xmlns="http://www.w3.org/2000/svg">
  <symbol viewBox="0 0 24 24" fill="#000000" id="share">
    <path d="M0 0h24v24H0V0z" fill="none"></path>
    <path d="M18 16.08c-.76 0-1.44.3-1.96.77L8.91 12.7c.05-.23.09-.46.09-.7s-.04-.47-.09-.7l7.05-4.11c.54.5 1.25.81 2.04.81 1.66 0 3-1.34 3-3s-1.34-3-3-3-3 1.34-3 3c0 .24.04.47.09.7L8.04 9.81C7.5 9.31 6.79 9 6 9c-1.66 0-3 1.34-3 3s1.34 3 3 3c.79 0 1.5-.31 2.04-.81l7.12 4.16c-.05.21-.08.43-.08.65 0 1.61 1.31 2.92 2.92 2.92s2.92-1.31 2.92-2.92c0-1.61-1.31-2.92-2.92-2.92zM18 4c.55 0 1 .45 1 1s-.45 1-1 1-1-.45-1-1 .45-1 1-1zM6 13c-.55 0-1-.45-1-1s.45-1 1-1 1 .45 1 1-.45 1-1 1zm12 7.02c-.55 0-1-.45-1-1s.45-1 1-1 1 .45 1 1-.45 1-1 1z"></path>
  </symbol>

  <symbol viewBox="0 0 24 24" id="message">
    <svg xmlns="http://www.w3.org/2000/svg" >
                    <path d="M0 0h24v24H0V0z" fill="none"></path>
                    <path d="M4 4h16v12H5.17L4 17.17V4m0-2c-1.1 0-1.99.9-1.99 2L2 22l4-4h14c1.1 0 2-.9 2-2V4c0-1.1-.9-2-2-2H4zm2 10h8v2H6v-2zm0-3h12v2H6V9zm0-3h12v2H6V6z"></path>
                    </svg>
  </symbol>

  <symbol viewBox="0 0 24 24" id="facebook">
    <svg fill="none" xmlns="http://www.w3.org/2000/svg">
    <path d="M9 8H6V12H9V24H14V12H17.642L18 8H14V6.333C14 5.378 14.192 5 15.115 5H18V0H14.192C10.596 0 9 1.583 9 4.615V8Z" fill="black"></path> </svg>
  </symbol>

  <symbol viewBox="0 0 24 24" id="twitter">
  <svg fill="none" xmlns="http://www.w3.org/2000/svg">
                        <g clip-path="url(#clip0_197_39)">
                            <path d="M24 4.55705C23.1014 4.95532 22.1481 5.21656 21.172 5.33205C22.2006 4.71723 22.9702 3.74892 23.337 2.60805C22.3704 3.18164 21.3128 3.58579 20.21 3.80305C19.7494 3.31145 19.1928 2.91974 18.5745 2.65224C17.9563 2.38475 17.2896 2.24717 16.616 2.24805C13.437 2.24805 11.101 5.21405 11.819 8.29305C9.86138 8.19506 7.94625 7.68645 6.19796 6.80024C4.44967 5.91404 2.9073 4.67005 1.671 3.14905C1.04148 4.23309 0.848566 5.51623 1.13149 6.73746C1.41441 7.95868 2.15192 9.02627 3.194 9.72305C2.41251 9.69838 1.64826 9.48718 0.965 9.10705C0.911 11.3881 2.546 13.5221 4.914 13.9971C4.18873 14.194 3.42806 14.2228 2.69 14.0811C3.00451 15.0594 3.61703 15.915 4.44184 16.5281C5.26665 17.1411 6.26249 17.481 7.29 17.5001C5.2262 19.1189 2.6043 19.8526 0 19.5401C2.25151 20.9866 4.87183 21.7545 7.548 21.7521C16.69 21.7521 21.855 14.0311 21.543 7.10605C22.5067 6.40887 23.3387 5.54575 24 4.55705V4.55705Z" fill="black"></path>
                        </g>
                        <defs>
                            <clipPath id="clip0_197_39">
                                <rect width="24" height="24" fill="white"></rect>
                            </clipPath>
                        </defs>
                    </svg>
  </symbol>

  <symbol viewBox="0 0 24 24" id="instagram">
    <svg fill="none" xmlns="http://www.w3.org/2000/svg">
                        <path d="M12 2.163C15.204 2.163 15.584 2.175 16.85 2.233C20.102 2.381 21.621 3.924 21.769 7.152C21.827 8.417 21.838 8.797 21.838 12.001C21.838 15.206 21.826 15.585 21.769 16.85C21.62 20.075 20.105 21.621 16.85 21.769C15.584 21.827 15.206 21.839 12 21.839C8.796 21.839 8.416 21.827 7.151 21.769C3.891 21.62 2.38 20.07 2.232 16.849C2.174 15.584 2.162 15.205 2.162 12C2.162 8.796 2.175 8.417 2.232 7.151C2.381 3.924 3.896 2.38 7.151 2.232C8.417 2.175 8.796 2.163 12 2.163V2.163ZM12 0C8.741 0 8.333 0.014 7.053 0.072C2.695 0.272 0.273 2.69 0.073 7.052C0.014 8.333 0 8.741 0 12C0 15.259 0.014 15.668 0.072 16.948C0.272 21.306 2.69 23.728 7.052 23.928C8.333 23.986 8.741 24 12 24C15.259 24 15.668 23.986 16.948 23.928C21.302 23.728 23.73 21.31 23.927 16.948C23.986 15.668 24 15.259 24 12C24 8.741 23.986 8.333 23.928 7.053C23.732 2.699 21.311 0.273 16.949 0.073C15.668 0.014 15.259 0 12 0ZM12 5.838C11.1908 5.838 10.3895 5.99739 9.6419 6.30705C8.8943 6.61672 8.215 7.07061 7.64281 7.64281C7.07061 8.215 6.61672 8.8943 6.30705 9.6419C5.99738 10.3895 5.838 11.1908 5.838 12C5.838 12.8092 5.99738 13.6105 6.30705 14.3581C6.61672 15.1057 7.07061 15.785 7.64281 16.3572C8.215 16.9294 8.8943 17.3833 9.6419 17.6929C10.3895 18.0026 11.1908 18.162 12 18.162C13.6343 18.162 15.2016 17.5128 16.3572 16.3572C17.5128 15.2016 18.162 13.6343 18.162 12C18.162 10.3657 17.5128 8.79841 16.3572 7.64281C15.2016 6.48721 13.6343 5.838 12 5.838V5.838ZM12 16C10.9391 16 9.92172 15.5786 9.17157 14.8284C8.42143 14.0783 8 13.0609 8 12C8 10.9391 8.42143 9.92172 9.17157 9.17157C9.92172 8.42143 10.9391 8 12 8C13.0609 8 14.0783 8.42143 14.8284 9.17157C15.5786 9.92172 16 10.9391 16 12C16 13.0609 15.5786 14.0783 14.8284 14.8284C14.0783 15.5786 13.0609 16 12 16ZM18.406 4.155C18.2168 4.155 18.0295 4.19226 17.8547 4.26465C17.68 4.33704 17.5212 4.44315 17.3874 4.57691C17.2537 4.71068 17.1475 4.86947 17.0752 5.04424C17.0028 5.21901 16.9655 5.40633 16.9655 5.5955C16.9655 5.78467 17.0028 5.97199 17.0752 6.14676C17.1475 6.32153 17.2537 6.48032 17.3874 6.61409C17.5212 6.74785 17.68 6.85396 17.8547 6.92635C18.0295 6.99874 18.2168 7.036 18.406 7.036C18.788 7.036 19.1544 6.88423 19.4246 6.61409C19.6947 6.34394 19.8465 5.97754 19.8465 5.5955C19.8465 5.21346 19.6947 4.84706 19.4246 4.57691C19.1544 4.30677 18.788 4.155 18.406 4.155V4.155Z" fill="black"></path> </svg>
  </symbol>

  <symbol viewBox="0 0 24 24">
    <svg fill="none" xmlns="http://www.w3.org/2000/svg">
    <g clip-path="url(#clip0_197_39)">
      <path d="M24 4.55705C23.1014 4.95532 22.1481 5.21656 21.172 5.33205C22.2006 4.71723 22.9702 3.74892 23.337 2.60805C22.3704 3.18164 21.3128 3.58579 20.21 3.80305C19.7494 3.31145 19.1928 2.91974 18.5745 2.65224C17.9563 2.38475 17.2896 2.24717 16.616 2.24805C13.437 2.24805 11.101 5.21405 11.819 8.29305C9.86138 8.19506 7.94625 7.68645 6.19796 6.80024C4.44967 5.91404 2.9073 4.67005 1.671 3.14905C1.04148 4.23309 0.848566 5.51623 1.13149 6.73746C1.41441 7.95868 2.15192 9.02627 3.194 9.72305C2.41251 9.69838 1.64826 9.48718 0.965 9.10705C0.911 11.3881 2.546 13.5221 4.914 13.9971C4.18873 14.194 3.42806 14.2228 2.69 14.0811C3.00451 15.0594 3.61703 15.915 4.44184 16.5281C5.26665 17.1411 6.26249 17.481 7.29 17.5001C5.2262 19.1189 2.6043 19.8526 0 19.5401C2.25151 20.9866 4.87183 21.7545 7.548 21.7521C16.69 21.7521 21.855 14.0311 21.543 7.10605C22.5067 6.40887 23.3387 5.54575 24 4.55705V4.55705Z" fill="black"></path>
    </g>
    <defs>
      <clipPath id="clip0_197_39">
          <rect width="24" height="24" fill="white"></rect>
      </clipPath>
    </defs>
    </svg>
  </symbol>

</svg>
