<svg xmlns="http://www.w3.org/2000/svg" style="display:none;">

    <symbol id="logo" viewBox="0 0 1397.782 459.12"><path fill="#353535" fill-rule="evenodd" d="M551.432 423.209a21.042 21.042 0 006.66 7.481 15.575 15.575 0 008.71 2.51q9.63 0 16.83-9.323 7.215-9.325 7.21-26.518 0-11.269-3.18-19.165t-8.5-11.778a19.588 19.588 0 00-11.81-3.884 16.155 16.155 0 00-8.44 2.26 21.2 21.2 0 00-6.78 6.844v-33.3h-9.42v93.343h8.72v-8.471zm4.42-44.728q4.56-6.526 10.37-6.526 6.33 0 10.66 6.239 4.35 6.242 4.35 19.547 0 12.988-4.51 19.515t-10.3 6.526a12.346 12.346 0 01-7.79-2.738 17.386 17.386 0 01-5.43-7.959q-1.905-5.22-1.91-15.726 0-12.351 4.56-18.878zm91.15 53.2V364.06h-9.43v36.228q0 12.735-3.69 17.509a13.466 13.466 0 01-11.08 5.539 10.451 10.451 0 01-6.46-2.133 10.7 10.7 0 01-3.88-5.666q-1.065-3.534-1.06-13.976v-37.5h-9.35v41.894c0 6.24.51 11.164 1.56 14.772a16.8 16.8 0 006.2 8.944 17.966 17.966 0 0011.21 3.53 17.78 17.78 0 009.93-2.86 24.158 24.158 0 007.64-8.6v9.936h8.41zm20.51 27.44a12.238 12.238 0 006.85-1.98 16.952 16.952 0 005.42-6.46q2.4-4.485 6.54-17.86l21.03-68.76h-9.42l-11.84 39.389q-2.235 7.509-3.82 15.4-1.845-8.336-4.01-15.653l-11.59-39.136h-10.12l21.09 67.72q-3.255 10.335-3.7 11.23a9.016 9.016 0 01-3.22 3.76 9.245 9.245 0 01-4.94 1.21 17.729 17.729 0 01-5.35-1.02l1.02 10.76a16.118 16.118 0 006.06 1.4zm53.53-27.44v-13.056h-10.69v13.055h10.69zm65.33 1.52q10.635 0 16.78-5.99t6.14-15.691a20.037 20.037 0 00-1.9-9.024 14.962 14.962 0 00-5.33-6q-3.435-2.2-15.09-5.9-8.49-2.788-10.21-4.058a6.982 6.982 0 01-2.87-5.9 7.719 7.719 0 012.99-6.246c2-1.627 5.03-2.441 9.11-2.441q10.755 0 12.03 11.078l9.17-1.528q-.96-7-3.44-10.76a17.2 17.2 0 00-7.16-5.985 25 25 0 00-10.86-2.228q-9.81 0-15.34 5.412-5.55 5.412-5.54 14.071a19.267 19.267 0 002.04 8.977 15.963 15.963 0 005.73 6.3q3.69 2.356 14.64 5.73 7.575 2.293 9.55 3.821a7.457 7.457 0 012.87 6.239 9.918 9.918 0 01-3.34 7.672q-3.33 3.026-9.43 3.025t-9.78-3.486q-3.69-3.486-4.51-10.649l-9.36 1.783q3.18 21.776 23.11 21.77zm57.17-9.418q-6.75 0-11.46-5.794t-5.28-17.191h41.38l.07-3.056q0-17.127-7.2-26.168-7.185-9.04-17.95-9.041-11.265 0-18.63 9.2t-7.35 26.709q0 16.874 7.29 25.818a23.43 23.43 0 0019.07 8.941 23.044 23.044 0 0015.69-5.5q6.345-5.5 8.76-16.331l-9.68-1.464q-4.14 13.881-14.71 13.88zm-11.27-46.575a13.648 13.648 0 0110.76-5.252q7.005 0 11.53 6.3 3.12 4.33 3.76 13.116h-30.95q.45-8.911 4.9-14.165zm56.61 54.473v-93.344h-9.36v93.343h9.36zm23.75 0v-93.344h-9.36v93.343h9.36zm28.33 0v-13.056h-10.7v13.055h10.7zm54.44-8.471a21.042 21.042 0 006.66 7.481 15.542 15.542 0 008.7 2.51q9.63 0 16.84-9.323t7.21-26.518q0-11.269-3.19-19.165t-8.5-11.778a19.545 19.545 0 00-11.81-3.884 16.119 16.119 0 00-8.43 2.26 21.2 21.2 0 00-6.78 6.844v-33.3h-9.43v93.343h8.73v-8.471zm4.42-44.728q4.56-6.526 10.37-6.526 6.33 0 10.66 6.239 4.35 6.242 4.34 19.547 0 12.988-4.5 19.515t-10.31 6.526a12.339 12.339 0 01-7.78-2.738 17.386 17.386 0 01-5.43-7.959q-1.92-5.22-1.91-15.726 0-12.352 4.56-18.879zm91.14 53.2V364.06h-9.42v36.228q0 12.735-3.69 17.509a13.466 13.466 0 01-11.08 5.539 10.451 10.451 0 01-6.46-2.136 10.711 10.711 0 01-3.89-5.666q-1.05-3.534-1.05-13.976v-37.5h-9.36v41.894q0 9.36 1.56 14.772a16.87 16.87 0 006.21 8.944 19.137 19.137 0 0021.14.67 24.252 24.252 0 007.64-8.6v9.936h8.4zm34.26 1.52q10.635 0 16.77-5.99t6.15-15.691a20.037 20.037 0 00-1.9-9.024 14.962 14.962 0 00-5.33-6q-3.435-2.2-15.1-5.9-8.475-2.788-10.2-4.058a6.957 6.957 0 01-2.87-5.9 7.719 7.719 0 012.99-6.246c2-1.627 5.03-2.441 9.11-2.441q10.755 0 12.03 11.078l9.17-1.528q-.96-7-3.44-10.76a17.2 17.2 0 00-7.16-5.985 25 25 0 00-10.86-2.228q-9.81 0-15.34 5.412-5.55 5.412-5.54 14.071a19.267 19.267 0 002.04 8.977 15.963 15.963 0 005.73 6.3q3.69 2.356 14.64 5.73 7.575 2.293 9.55 3.821a7.449 7.449 0 012.86 6.239 9.909 9.909 0 01-3.33 7.672q-3.33 3.026-9.43 3.025a13.666 13.666 0 01-9.79-3.486q-3.675-3.486-4.5-10.649l-9.36 1.783q3.18 21.776 23.11 21.77zm43.36-81.683v-13.18h-9.36v13.18h9.36zm0 80.163V364.06h-9.36v67.62h9.36zm23.75 0v-36.973q0-12.237 4.01-17.273a13.044 13.044 0 0110.76-5.036 10.738 10.738 0 016.27 1.881 10.886 10.886 0 013.98 5.322q1.275 3.441 1.27 10.9v41.178h9.36V390.1q0-9.36-1.14-13.88a18.742 18.742 0 00-3.47-7.354 16.868 16.868 0 00-6.1-4.584 19.333 19.333 0 00-8.23-1.751 18.79 18.79 0 00-10.14 2.754 21.982 21.982 0 00-7.47 8.325v-9.55h-8.46v67.62h9.36zm73.28-7.9q-6.75 0-11.46-5.794t-5.29-17.191h41.39l.06-3.056q0-17.127-7.19-26.168t-17.96-9.041q-11.265 0-18.62 9.2t-7.35 26.709q0 16.874 7.29 25.818a23.417 23.417 0 0019.07 8.941 23.044 23.044 0 0015.69-5.5q6.33-5.5 8.75-16.331l-9.67-1.464q-4.14 13.881-14.71 13.88zm-11.27-46.575a13.648 13.648 0 0110.76-5.252q7.005 0 11.52 6.3 3.12 4.33 3.76 13.116h-30.94q.435-8.91 4.9-14.164zm67.04 55.993q10.635 0 16.78-5.99t6.14-15.691a19.9 19.9 0 00-1.9-9.024 14.889 14.889 0 00-5.33-6q-3.42-2.2-15.09-5.9-8.49-2.788-10.21-4.058a6.982 6.982 0 01-2.87-5.9 7.7 7.7 0 013-6.246c1.99-1.627 5.03-2.441 9.1-2.441q10.755 0 12.04 11.078l9.16-1.528q-.945-7-3.43-10.76a17.232 17.232 0 00-7.17-5.985 24.989 24.989 0 00-10.85-2.228q-9.81 0-15.35 5.412t-5.54 14.071a19.267 19.267 0 002.04 8.977 16.112 16.112 0 005.73 6.3q3.69 2.356 14.65 5.73 7.575 2.293 9.55 3.821a7.449 7.449 0 012.86 6.239 9.909 9.909 0 01-3.33 7.672q-3.345 3.026-9.44 3.025a13.658 13.658 0 01-9.78-3.486q-3.69-3.486-4.51-10.649l-9.36 1.783q3.18 21.776 23.11 21.77zm53.49 0q10.62 0 16.77-5.99t6.15-15.691a19.9 19.9 0 00-1.91-9.024 14.939 14.939 0 00-5.32-6q-3.435-2.2-15.1-5.9-8.475-2.788-10.2-4.058a6.957 6.957 0 01-2.87-5.9 7.69 7.69 0 012.99-6.246c1.99-1.627 5.03-2.441 9.1-2.441q10.77 0 12.04 11.078l9.17-1.528q-.96-7-3.44-10.76a17.2 17.2 0 00-7.16-5.985 25 25 0 00-10.86-2.228q-9.81 0-15.34 5.412-5.55 5.412-5.54 14.071a19.263 19.263 0 002.03 8.977 16.112 16.112 0 005.73 6.3q3.69 2.356 14.65 5.73 7.575 2.293 9.55 3.821a7.449 7.449 0 012.86 6.239 9.909 9.909 0 01-3.33 7.672q-3.33 3.026-9.43 3.025a13.666 13.666 0 01-9.79-3.486q-3.675-3.486-4.51-10.649l-9.36 1.783q3.195 21.776 23.12 21.77z" data-name="buy. sell. business"></path><path fill="#ff9c00" fill-rule="evenodd" d="M985.302 175.832q0-15.135 7.18-25.225t23.48-10.089a23.21 23.21 0 0112.81 3.492 29.426 29.426 0 018.92 8.926 38.267 38.267 0 015.05 12.224 58.674 58.674 0 011.55 13q0 23.676-10.09 34.538t-26 10.867q-13.965 0-22.9-3.881v-43.852zm-65.58 86.541a257.706 257.706 0 0035.7 10.09 208.853 208.853 0 0044.63 4.657q54.33 0 82.27-26.583t27.94-75.093a110.706 110.706 0 00-5.24-34.15 91.849 91.849 0 00-15.13-28.912 73.124 73.124 0 00-24.84-20.18q-14.94-7.567-33.95-7.567a71.7 71.7 0 00-9.51.776 67.925 67.925 0 00-12.03 2.91 78.972 78.972 0 00-12.81 5.628 41.159 41.159 0 00-11.45 9.313v-91.2h-65.58v250.311zm214.21 8.538h65.58v-182.4h-65.58v182.4zm91.2 0h171.14v-50.45h-84.6l83.43-90.421V88.515h-164.93v52h80.72l-85.76 90.033v40.36zM1167.812 0a32.5 32.5 0 11-32.5 32.5 32.5 32.5 0 0132.5-32.5z"></path><path fill="#2464b3" fill-rule="evenodd" d="M-.011 270.911h67.137v-88.093h28.718l43.852 88.093h73.734l-55.494-99.347a86.372 86.372 0 0029.881-30.076q11.251-18.819 11.255-44.435 0-20.957-6.6-36.867A71.713 71.713 0 00173.847 33.6a79.864 79.864 0 00-28.912-16.1q-16.881-5.43-37.837-5.433H-.011v258.844zm67.137-142.036V66.4h32.986q14.745 0 22.9 8.538t8.149 23.284q0 13.971-8.537 22.315t-22.12 8.343H67.126zm165.705 142.036h65.581v-182.4h-65.581v182.4zm102.449 62.48a111.95 111.95 0 0037.256 15.523 190.964 190.964 0 0040.359 4.269q48.507 0 73.737-22.509t25.22-74.51V99.77a257 257 0 00-40.94-11.255 231.2 231.2 0 00-42.495-3.88 133.721 133.721 0 00-42.882 6.6 97.985 97.985 0 00-33.762 19.016 83 83 0 00-21.927 31.046q-7.767 18.627-7.761 42.3a105.637 105.637 0 005.433 34.733 76.368 76.368 0 0015.718 26.97 69.569 69.569 0 0025.419 17.463q15.135 6.213 34.539 6.209a116.6 116.6 0 0022.9-2.328 42.315 42.315 0 0020.568-10.478v6.209q0 21.337-9.9 30.464t-30.076 9.12a81.117 81.117 0 01-24.254-3.687 94.574 94.574 0 01-22.315-10.284zm111.766-147.469q0 16.3-7.955 23.867t-20.763 7.567q-13.2 0-21.926-8.925t-8.731-27.166a64.839 64.839 0 012.134-16.881 37.147 37.147 0 016.791-13.777 33.436 33.436 0 0112.031-9.313 40.407 40.407 0 0117.463-3.493 65.909 65.909 0 0120.956 3.493v44.628zm95.076 84.989h65.58V173.5a48.392 48.392 0 011.36-11.448 27.776 27.776 0 014.85-10.284 24.159 24.159 0 019.31-7.374q5.835-2.711 14.75-2.716 12.42 0 18.82 8.343t6.41 23.091v97.795h65.58V156.041q0-19.011-5.24-32.793a58.978 58.978 0 00-14.55-22.508 57.7 57.7 0 00-21.73-12.807 85.489 85.489 0 00-26.78-4.074 106.37 106.37 0 00-11.84.776 75.77 75.77 0 00-14.16 3.1 65.181 65.181 0 00-14.36 6.6 49.453 49.453 0 00-12.42 10.866V12.065h-65.58v258.846zm227.8-76.839a145.811 145.811 0 003.68 33.762 65.926 65.926 0 0012.61 26.584q8.925 11.06 23.87 17.269t37.06 6.209a91.291 91.291 0 0031.05-5.433 98.379 98.379 0 0027.55-15.135l-25.61-40.36a69.907 69.907 0 01-11.06 6.21 29.46 29.46 0 01-12.23 2.716q-21.345 0-21.34-22.508v-64.421h45.02v-50.45h-45.02V37.678h-65.58v50.837h-26.78v50.45h26.78v55.107zM266.812 0a32.5 32.5 0 11-32.5 32.5 32.5 32.5 0 0132.5-32.5z" data-name="Ellipse 1 copy"></path></symbol>
    <symbol id="logo_notag" viewBox="0 0 1397.782 357.12"><path fill="#ff9c00" fill-rule="evenodd" d="M985.302 175.832q0-15.135 7.18-25.225t23.48-10.089a23.21 23.21 0 0112.81 3.492 29.426 29.426 0 018.92 8.926 38.267 38.267 0 015.05 12.224 58.674 58.674 0 011.55 13q0 23.676-10.09 34.538t-26 10.867q-13.965 0-22.9-3.881v-43.852zm-65.58 86.541a257.706 257.706 0 0035.7 10.09 208.853 208.853 0 0044.63 4.657q54.33 0 82.27-26.583t27.94-75.093a110.706 110.706 0 00-5.24-34.15 91.849 91.849 0 00-15.13-28.912 73.124 73.124 0 00-24.84-20.18q-14.94-7.567-33.95-7.567a71.7 71.7 0 00-9.51.776 67.925 67.925 0 00-12.03 2.91 78.972 78.972 0 00-12.81 5.628 41.159 41.159 0 00-11.45 9.313v-91.2h-65.58v250.311zm214.21 8.538h65.58v-182.4h-65.58v182.4zm91.2 0h171.14v-50.45h-84.6l83.43-90.421V88.515h-164.93v52h80.72l-85.76 90.033v40.36zM1167.812 0a32.5 32.5 0 11-32.5 32.5 32.5 32.5 0 0132.5-32.5z"></path><path fill="#2464b3" fill-rule="evenodd" d="M-.011 270.911h67.137v-88.093h28.718l43.852 88.093h73.734l-55.494-99.347a86.372 86.372 0 0029.881-30.076q11.251-18.819 11.255-44.435 0-20.957-6.6-36.867A71.713 71.713 0 00173.847 33.6a79.864 79.864 0 00-28.912-16.1q-16.881-5.43-37.837-5.433H-.011v258.844zm67.137-142.036V66.4h32.986q14.745 0 22.9 8.538t8.149 23.284q0 13.971-8.537 22.315t-22.12 8.343H67.126zm165.705 142.036h65.581v-182.4h-65.581v182.4zm102.449 62.48a111.95 111.95 0 0037.256 15.523 190.964 190.964 0 0040.359 4.269q48.507 0 73.737-22.509t25.22-74.51V99.77a257 257 0 00-40.94-11.255 231.2 231.2 0 00-42.495-3.88 133.721 133.721 0 00-42.882 6.6 97.985 97.985 0 00-33.762 19.016 83 83 0 00-21.927 31.046q-7.767 18.627-7.761 42.3a105.637 105.637 0 005.433 34.733 76.368 76.368 0 0015.718 26.97 69.569 69.569 0 0025.419 17.463q15.135 6.213 34.539 6.209a116.6 116.6 0 0022.9-2.328 42.315 42.315 0 0020.568-10.478v6.209q0 21.337-9.9 30.464t-30.076 9.12a81.117 81.117 0 01-24.254-3.687 94.574 94.574 0 01-22.315-10.284zm111.766-147.469q0 16.3-7.955 23.867t-20.763 7.567q-13.2 0-21.926-8.925t-8.731-27.166a64.839 64.839 0 012.134-16.881 37.147 37.147 0 016.791-13.777 33.436 33.436 0 0112.031-9.313 40.407 40.407 0 0117.463-3.493 65.909 65.909 0 0120.956 3.493v44.628zm95.076 84.989h65.58V173.5a48.392 48.392 0 011.36-11.448 27.776 27.776 0 014.85-10.284 24.159 24.159 0 019.31-7.374q5.835-2.711 14.75-2.716 12.42 0 18.82 8.343t6.41 23.091v97.795h65.58V156.041q0-19.011-5.24-32.793a58.978 58.978 0 00-14.55-22.508 57.7 57.7 0 00-21.73-12.807 85.489 85.489 0 00-26.78-4.074 106.37 106.37 0 00-11.84.776 75.77 75.77 0 00-14.16 3.1 65.181 65.181 0 00-14.36 6.6 49.453 49.453 0 00-12.42 10.866V12.065h-65.58v258.846zm227.8-76.839a145.811 145.811 0 003.68 33.762 65.926 65.926 0 0012.61 26.584q8.925 11.06 23.87 17.269t37.06 6.209a91.291 91.291 0 0031.05-5.433 98.379 98.379 0 0027.55-15.135l-25.61-40.36a69.907 69.907 0 01-11.06 6.21 29.46 29.46 0 01-12.23 2.716q-21.345 0-21.34-22.508v-64.421h45.02v-50.45h-45.02V37.678h-65.58v50.837h-26.78v50.45h26.78v55.107zM266.812 0a32.5 32.5 0 11-32.5 32.5 32.5 32.5 0 0132.5-32.5z" data-name="Ellipse 1 copy"></path></symbol>

    <symbol id="logo_white" viewBox="0 0 1397.782 459.12"><path fill="#fff" fill-rule="evenodd" d="M551.432 423.209a21.042 21.042 0 006.66 7.481 15.575 15.575 0 008.71 2.51q9.63 0 16.83-9.323 7.215-9.325 7.21-26.518 0-11.269-3.18-19.165t-8.5-11.778a19.588 19.588 0 00-11.81-3.884 16.155 16.155 0 00-8.44 2.26 21.2 21.2 0 00-6.78 6.844v-33.3h-9.42v93.343h8.72v-8.471zm4.42-44.728q4.56-6.526 10.37-6.526 6.33 0 10.66 6.239 4.35 6.242 4.35 19.547 0 12.988-4.51 19.515t-10.3 6.526a12.346 12.346 0 01-7.79-2.738 17.386 17.386 0 01-5.43-7.959q-1.905-5.22-1.91-15.726 0-12.351 4.56-18.878zm91.15 53.2V364.06h-9.43v36.228q0 12.735-3.69 17.509a13.466 13.466 0 01-11.08 5.539 10.451 10.451 0 01-6.46-2.133 10.7 10.7 0 01-3.88-5.666q-1.065-3.534-1.06-13.976v-37.5h-9.35v41.894c0 6.24.51 11.164 1.56 14.772a16.8 16.8 0 006.2 8.944 17.966 17.966 0 0011.21 3.53 17.78 17.78 0 009.93-2.86 24.158 24.158 0 007.64-8.6v9.936h8.41zm20.51 27.44a12.238 12.238 0 006.85-1.98 16.952 16.952 0 005.42-6.46q2.4-4.485 6.54-17.86l21.03-68.76h-9.42l-11.84 39.389q-2.235 7.509-3.82 15.4-1.845-8.336-4.01-15.653l-11.59-39.136h-10.12l21.09 67.72q-3.255 10.335-3.7 11.23a9.016 9.016 0 01-3.22 3.76 9.245 9.245 0 01-4.94 1.21 17.729 17.729 0 01-5.35-1.02l1.02 10.76a16.118 16.118 0 006.06 1.4zm53.53-27.44v-13.056h-10.69v13.055h10.69zm65.33 1.52q10.635 0 16.78-5.99t6.14-15.691a20.037 20.037 0 00-1.9-9.024 14.962 14.962 0 00-5.33-6q-3.435-2.2-15.09-5.9-8.49-2.788-10.21-4.058a6.982 6.982 0 01-2.87-5.9 7.719 7.719 0 012.99-6.246c2-1.627 5.03-2.441 9.11-2.441q10.755 0 12.03 11.078l9.17-1.528q-.96-7-3.44-10.76a17.2 17.2 0 00-7.16-5.985 25 25 0 00-10.86-2.228q-9.81 0-15.34 5.412-5.55 5.412-5.54 14.071a19.267 19.267 0 002.04 8.977 15.963 15.963 0 005.73 6.3q3.69 2.356 14.64 5.73 7.575 2.293 9.55 3.821a7.457 7.457 0 012.87 6.239 9.918 9.918 0 01-3.34 7.672q-3.33 3.026-9.43 3.025t-9.78-3.486q-3.69-3.486-4.51-10.649l-9.36 1.783q3.18 21.776 23.11 21.77zm57.17-9.418q-6.75 0-11.46-5.794t-5.28-17.191h41.38l.07-3.056q0-17.127-7.2-26.168-7.185-9.04-17.95-9.041-11.265 0-18.63 9.2t-7.35 26.709q0 16.874 7.29 25.818a23.43 23.43 0 0019.07 8.941 23.044 23.044 0 0015.69-5.5q6.345-5.5 8.76-16.331l-9.68-1.464q-4.14 13.881-14.71 13.88zm-11.27-46.575a13.648 13.648 0 0110.76-5.252q7.005 0 11.53 6.3 3.12 4.33 3.76 13.116h-30.95q.45-8.911 4.9-14.165zm56.61 54.473v-93.344h-9.36v93.343h9.36zm23.75 0v-93.344h-9.36v93.343h9.36zm28.33 0v-13.056h-10.7v13.055h10.7zm54.44-8.471a21.042 21.042 0 006.66 7.481 15.542 15.542 0 008.7 2.51q9.63 0 16.84-9.323t7.21-26.518q0-11.269-3.19-19.165t-8.5-11.778a19.545 19.545 0 00-11.81-3.884 16.119 16.119 0 00-8.43 2.26 21.2 21.2 0 00-6.78 6.844v-33.3h-9.43v93.343h8.73v-8.471zm4.42-44.728q4.56-6.526 10.37-6.526 6.33 0 10.66 6.239 4.35 6.242 4.34 19.547 0 12.988-4.5 19.515t-10.31 6.526a12.339 12.339 0 01-7.78-2.738 17.386 17.386 0 01-5.43-7.959q-1.92-5.22-1.91-15.726 0-12.352 4.56-18.879zm91.14 53.2V364.06h-9.42v36.228q0 12.735-3.69 17.509a13.466 13.466 0 01-11.08 5.539 10.451 10.451 0 01-6.46-2.136 10.711 10.711 0 01-3.89-5.666q-1.05-3.534-1.05-13.976v-37.5h-9.36v41.894q0 9.36 1.56 14.772a16.87 16.87 0 006.21 8.944 19.137 19.137 0 0021.14.67 24.252 24.252 0 007.64-8.6v9.936h8.4zm34.26 1.52q10.635 0 16.77-5.99t6.15-15.691a20.037 20.037 0 00-1.9-9.024 14.962 14.962 0 00-5.33-6q-3.435-2.2-15.1-5.9-8.475-2.788-10.2-4.058a6.957 6.957 0 01-2.87-5.9 7.719 7.719 0 012.99-6.246c2-1.627 5.03-2.441 9.11-2.441q10.755 0 12.03 11.078l9.17-1.528q-.96-7-3.44-10.76a17.2 17.2 0 00-7.16-5.985 25 25 0 00-10.86-2.228q-9.81 0-15.34 5.412-5.55 5.412-5.54 14.071a19.267 19.267 0 002.04 8.977 15.963 15.963 0 005.73 6.3q3.69 2.356 14.64 5.73 7.575 2.293 9.55 3.821a7.449 7.449 0 012.86 6.239 9.909 9.909 0 01-3.33 7.672q-3.33 3.026-9.43 3.025a13.666 13.666 0 01-9.79-3.486q-3.675-3.486-4.5-10.649l-9.36 1.783q3.18 21.776 23.11 21.77zm43.36-81.683v-13.18h-9.36v13.18h9.36zm0 80.163V364.06h-9.36v67.62h9.36zm23.75 0v-36.973q0-12.237 4.01-17.273a13.044 13.044 0 0110.76-5.036 10.738 10.738 0 016.27 1.881 10.886 10.886 0 013.98 5.322q1.275 3.441 1.27 10.9v41.178h9.36V390.1q0-9.36-1.14-13.88a18.742 18.742 0 00-3.47-7.354 16.868 16.868 0 00-6.1-4.584 19.333 19.333 0 00-8.23-1.751 18.79 18.79 0 00-10.14 2.754 21.982 21.982 0 00-7.47 8.325v-9.55h-8.46v67.62h9.36zm73.28-7.9q-6.75 0-11.46-5.794t-5.29-17.191h41.39l.06-3.056q0-17.127-7.19-26.168t-17.96-9.041q-11.265 0-18.62 9.2t-7.35 26.709q0 16.874 7.29 25.818a23.417 23.417 0 0019.07 8.941 23.044 23.044 0 0015.69-5.5q6.33-5.5 8.75-16.331l-9.67-1.464q-4.14 13.881-14.71 13.88zm-11.27-46.575a13.648 13.648 0 0110.76-5.252q7.005 0 11.52 6.3 3.12 4.33 3.76 13.116h-30.94q.435-8.91 4.9-14.164zm67.04 55.993q10.635 0 16.78-5.99t6.14-15.691a19.9 19.9 0 00-1.9-9.024 14.889 14.889 0 00-5.33-6q-3.42-2.2-15.09-5.9-8.49-2.788-10.21-4.058a6.982 6.982 0 01-2.87-5.9 7.7 7.7 0 013-6.246c1.99-1.627 5.03-2.441 9.1-2.441q10.755 0 12.04 11.078l9.16-1.528q-.945-7-3.43-10.76a17.232 17.232 0 00-7.17-5.985 24.989 24.989 0 00-10.85-2.228q-9.81 0-15.35 5.412t-5.54 14.071a19.267 19.267 0 002.04 8.977 16.112 16.112 0 005.73 6.3q3.69 2.356 14.65 5.73 7.575 2.293 9.55 3.821a7.449 7.449 0 012.86 6.239 9.909 9.909 0 01-3.33 7.672q-3.345 3.026-9.44 3.025a13.658 13.658 0 01-9.78-3.486q-3.69-3.486-4.51-10.649l-9.36 1.783q3.18 21.776 23.11 21.77zm53.49 0q10.62 0 16.77-5.99t6.15-15.691a19.9 19.9 0 00-1.91-9.024 14.939 14.939 0 00-5.32-6q-3.435-2.2-15.1-5.9-8.475-2.788-10.2-4.058a6.957 6.957 0 01-2.87-5.9 7.69 7.69 0 012.99-6.246c1.99-1.627 5.03-2.441 9.1-2.441q10.77 0 12.04 11.078l9.17-1.528q-.96-7-3.44-10.76a17.2 17.2 0 00-7.16-5.985 25 25 0 00-10.86-2.228q-9.81 0-15.34 5.412-5.55 5.412-5.54 14.071a19.263 19.263 0 002.03 8.977 16.112 16.112 0 005.73 6.3q3.69 2.356 14.65 5.73 7.575 2.293 9.55 3.821a7.449 7.449 0 012.86 6.239 9.909 9.909 0 01-3.33 7.672q-3.33 3.026-9.43 3.025a13.666 13.666 0 01-9.79-3.486q-3.675-3.486-4.51-10.649l-9.36 1.783q3.195 21.776 23.12 21.77z" data-name="buy. sell. business"></path><path fill="#fff" fill-rule="evenodd" d="M985.302 175.832q0-15.135 7.18-25.225t23.48-10.089a23.21 23.21 0 0112.81 3.492 29.426 29.426 0 018.92 8.926 38.267 38.267 0 015.05 12.224 58.674 58.674 0 011.55 13q0 23.676-10.09 34.538t-26 10.867q-13.965 0-22.9-3.881v-43.852zm-65.58 86.541a257.706 257.706 0 0035.7 10.09 208.853 208.853 0 0044.63 4.657q54.33 0 82.27-26.583t27.94-75.093a110.706 110.706 0 00-5.24-34.15 91.849 91.849 0 00-15.13-28.912 73.124 73.124 0 00-24.84-20.18q-14.94-7.567-33.95-7.567a71.7 71.7 0 00-9.51.776 67.925 67.925 0 00-12.03 2.91 78.972 78.972 0 00-12.81 5.628 41.159 41.159 0 00-11.45 9.313v-91.2h-65.58v250.311zm214.21 8.538h65.58v-182.4h-65.58v182.4zm91.2 0h171.14v-50.45h-84.6l83.43-90.421V88.515h-164.93v52h80.72l-85.76 90.033v40.36zM1167.812 0a32.5 32.5 0 11-32.5 32.5 32.5 32.5 0 0132.5-32.5z"></path><path fill="#fff" fill-rule="evenodd" d="M-.011 270.911h67.137v-88.093h28.718l43.852 88.093h73.734l-55.494-99.347a86.372 86.372 0 0029.881-30.076q11.251-18.819 11.255-44.435 0-20.957-6.6-36.867A71.713 71.713 0 00173.847 33.6a79.864 79.864 0 00-28.912-16.1q-16.881-5.43-37.837-5.433H-.011v258.844zm67.137-142.036V66.4h32.986q14.745 0 22.9 8.538t8.149 23.284q0 13.971-8.537 22.315t-22.12 8.343H67.126zm165.705 142.036h65.581v-182.4h-65.581v182.4zm102.449 62.48a111.95 111.95 0 0037.256 15.523 190.964 190.964 0 0040.359 4.269q48.507 0 73.737-22.509t25.22-74.51V99.77a257 257 0 00-40.94-11.255 231.2 231.2 0 00-42.495-3.88 133.721 133.721 0 00-42.882 6.6 97.985 97.985 0 00-33.762 19.016 83 83 0 00-21.927 31.046q-7.767 18.627-7.761 42.3a105.637 105.637 0 005.433 34.733 76.368 76.368 0 0015.718 26.97 69.569 69.569 0 0025.419 17.463q15.135 6.213 34.539 6.209a116.6 116.6 0 0022.9-2.328 42.315 42.315 0 0020.568-10.478v6.209q0 21.337-9.9 30.464t-30.076 9.12a81.117 81.117 0 01-24.254-3.687 94.574 94.574 0 01-22.315-10.284zm111.766-147.469q0 16.3-7.955 23.867t-20.763 7.567q-13.2 0-21.926-8.925t-8.731-27.166a64.839 64.839 0 012.134-16.881 37.147 37.147 0 016.791-13.777 33.436 33.436 0 0112.031-9.313 40.407 40.407 0 0117.463-3.493 65.909 65.909 0 0120.956 3.493v44.628zm95.076 84.989h65.58V173.5a48.392 48.392 0 011.36-11.448 27.776 27.776 0 014.85-10.284 24.159 24.159 0 019.31-7.374q5.835-2.711 14.75-2.716 12.42 0 18.82 8.343t6.41 23.091v97.795h65.58V156.041q0-19.011-5.24-32.793a58.978 58.978 0 00-14.55-22.508 57.7 57.7 0 00-21.73-12.807 85.489 85.489 0 00-26.78-4.074 106.37 106.37 0 00-11.84.776 75.77 75.77 0 00-14.16 3.1 65.181 65.181 0 00-14.36 6.6 49.453 49.453 0 00-12.42 10.866V12.065h-65.58v258.846zm227.8-76.839a145.811 145.811 0 003.68 33.762 65.926 65.926 0 0012.61 26.584q8.925 11.06 23.87 17.269t37.06 6.209a91.291 91.291 0 0031.05-5.433 98.379 98.379 0 0027.55-15.135l-25.61-40.36a69.907 69.907 0 01-11.06 6.21 29.46 29.46 0 01-12.23 2.716q-21.345 0-21.34-22.508v-64.421h45.02v-50.45h-45.02V37.678h-65.58v50.837h-26.78v50.45h26.78v55.107zM266.812 0a32.5 32.5 0 11-32.5 32.5 32.5 32.5 0 0132.5-32.5z" data-name="Ellipse 1 copy"></path></symbol>
    <symbol  id="logo_white_notag" viewBox="0 0 1397.782 357.12"><path fill="#fff" fill-rule="evenodd" d="M985.302 175.832q0-15.135 7.18-25.225t23.48-10.089a23.21 23.21 0 0112.81 3.492 29.426 29.426 0 018.92 8.926 38.267 38.267 0 015.05 12.224 58.674 58.674 0 011.55 13q0 23.676-10.09 34.538t-26 10.867q-13.965 0-22.9-3.881v-43.852zm-65.58 86.541a257.706 257.706 0 0035.7 10.09 208.853 208.853 0 0044.63 4.657q54.33 0 82.27-26.583t27.94-75.093a110.706 110.706 0 00-5.24-34.15 91.849 91.849 0 00-15.13-28.912 73.124 73.124 0 00-24.84-20.18q-14.94-7.567-33.95-7.567a71.7 71.7 0 00-9.51.776 67.925 67.925 0 00-12.03 2.91 78.972 78.972 0 00-12.81 5.628 41.159 41.159 0 00-11.45 9.313v-91.2h-65.58v250.311zm214.21 8.538h65.58v-182.4h-65.58v182.4zm91.2 0h171.14v-50.45h-84.6l83.43-90.421V88.515h-164.93v52h80.72l-85.76 90.033v40.36zM1167.812 0a32.5 32.5 0 11-32.5 32.5 32.5 32.5 0 0132.5-32.5z"></path><path fill="#fff" fill-rule="evenodd" d="M-.011 270.911h67.137v-88.093h28.718l43.852 88.093h73.734l-55.494-99.347a86.372 86.372 0 0029.881-30.076q11.251-18.819 11.255-44.435 0-20.957-6.6-36.867A71.713 71.713 0 00173.847 33.6a79.864 79.864 0 00-28.912-16.1q-16.881-5.43-37.837-5.433H-.011v258.844zm67.137-142.036V66.4h32.986q14.745 0 22.9 8.538t8.149 23.284q0 13.971-8.537 22.315t-22.12 8.343H67.126zm165.705 142.036h65.581v-182.4h-65.581v182.4zm102.449 62.48a111.95 111.95 0 0037.256 15.523 190.964 190.964 0 0040.359 4.269q48.507 0 73.737-22.509t25.22-74.51V99.77a257 257 0 00-40.94-11.255 231.2 231.2 0 00-42.495-3.88 133.721 133.721 0 00-42.882 6.6 97.985 97.985 0 00-33.762 19.016 83 83 0 00-21.927 31.046q-7.767 18.627-7.761 42.3a105.637 105.637 0 005.433 34.733 76.368 76.368 0 0015.718 26.97 69.569 69.569 0 0025.419 17.463q15.135 6.213 34.539 6.209a116.6 116.6 0 0022.9-2.328 42.315 42.315 0 0020.568-10.478v6.209q0 21.337-9.9 30.464t-30.076 9.12a81.117 81.117 0 01-24.254-3.687 94.574 94.574 0 01-22.315-10.284zm111.766-147.469q0 16.3-7.955 23.867t-20.763 7.567q-13.2 0-21.926-8.925t-8.731-27.166a64.839 64.839 0 012.134-16.881 37.147 37.147 0 016.791-13.777 33.436 33.436 0 0112.031-9.313 40.407 40.407 0 0117.463-3.493 65.909 65.909 0 0120.956 3.493v44.628zm95.076 84.989h65.58V173.5a48.392 48.392 0 011.36-11.448 27.776 27.776 0 014.85-10.284 24.159 24.159 0 019.31-7.374q5.835-2.711 14.75-2.716 12.42 0 18.82 8.343t6.41 23.091v97.795h65.58V156.041q0-19.011-5.24-32.793a58.978 58.978 0 00-14.55-22.508 57.7 57.7 0 00-21.73-12.807 85.489 85.489 0 00-26.78-4.074 106.37 106.37 0 00-11.84.776 75.77 75.77 0 00-14.16 3.1 65.181 65.181 0 00-14.36 6.6 49.453 49.453 0 00-12.42 10.866V12.065h-65.58v258.846zm227.8-76.839a145.811 145.811 0 003.68 33.762 65.926 65.926 0 0012.61 26.584q8.925 11.06 23.87 17.269t37.06 6.209a91.291 91.291 0 0031.05-5.433 98.379 98.379 0 0027.55-15.135l-25.61-40.36a69.907 69.907 0 01-11.06 6.21 29.46 29.46 0 01-12.23 2.716q-21.345 0-21.34-22.508v-64.421h45.02v-50.45h-45.02V37.678h-65.58v50.837h-26.78v50.45h26.78v55.107zM266.812 0a32.5 32.5 0 11-32.5 32.5 32.5 32.5 0 0132.5-32.5z" data-name="Ellipse 1 copy"></path></symbol>

    <symbol id="logo_black" viewBox="0 0 1397.782 459.12"><path fill="#000" fill-rule="evenodd" d="M551.432 423.209a21.042 21.042 0 006.66 7.481 15.575 15.575 0 008.71 2.51q9.63 0 16.83-9.323 7.215-9.325 7.21-26.518 0-11.269-3.18-19.165t-8.5-11.778a19.588 19.588 0 00-11.81-3.884 16.155 16.155 0 00-8.44 2.26 21.2 21.2 0 00-6.78 6.844v-33.3h-9.42v93.343h8.72v-8.471zm4.42-44.728q4.56-6.526 10.37-6.526 6.33 0 10.66 6.239 4.35 6.242 4.35 19.547 0 12.988-4.51 19.515t-10.3 6.526a12.346 12.346 0 01-7.79-2.738 17.386 17.386 0 01-5.43-7.959q-1.905-5.22-1.91-15.726 0-12.351 4.56-18.878zm91.15 53.2V364.06h-9.43v36.228q0 12.735-3.69 17.509a13.466 13.466 0 01-11.08 5.539 10.451 10.451 0 01-6.46-2.133 10.7 10.7 0 01-3.88-5.666q-1.065-3.534-1.06-13.976v-37.5h-9.35v41.894c0 6.24.51 11.164 1.56 14.772a16.8 16.8 0 006.2 8.944 17.966 17.966 0 0011.21 3.53 17.78 17.78 0 009.93-2.86 24.158 24.158 0 007.64-8.6v9.936h8.41zm20.51 27.44a12.238 12.238 0 006.85-1.98 16.952 16.952 0 005.42-6.46q2.4-4.485 6.54-17.86l21.03-68.76h-9.42l-11.84 39.389q-2.235 7.509-3.82 15.4-1.845-8.336-4.01-15.653l-11.59-39.136h-10.12l21.09 67.72q-3.255 10.335-3.7 11.23a9.016 9.016 0 01-3.22 3.76 9.245 9.245 0 01-4.94 1.21 17.729 17.729 0 01-5.35-1.02l1.02 10.76a16.118 16.118 0 006.06 1.4zm53.53-27.44v-13.056h-10.69v13.055h10.69zm65.33 1.52q10.635 0 16.78-5.99t6.14-15.691a20.037 20.037 0 00-1.9-9.024 14.962 14.962 0 00-5.33-6q-3.435-2.2-15.09-5.9-8.49-2.788-10.21-4.058a6.982 6.982 0 01-2.87-5.9 7.719 7.719 0 012.99-6.246c2-1.627 5.03-2.441 9.11-2.441q10.755 0 12.03 11.078l9.17-1.528q-.96-7-3.44-10.76a17.2 17.2 0 00-7.16-5.985 25 25 0 00-10.86-2.228q-9.81 0-15.34 5.412-5.55 5.412-5.54 14.071a19.267 19.267 0 002.04 8.977 15.963 15.963 0 005.73 6.3q3.69 2.356 14.64 5.73 7.575 2.293 9.55 3.821a7.457 7.457 0 012.87 6.239 9.918 9.918 0 01-3.34 7.672q-3.33 3.026-9.43 3.025t-9.78-3.486q-3.69-3.486-4.51-10.649l-9.36 1.783q3.18 21.776 23.11 21.77zm57.17-9.418q-6.75 0-11.46-5.794t-5.28-17.191h41.38l.07-3.056q0-17.127-7.2-26.168-7.185-9.04-17.95-9.041-11.265 0-18.63 9.2t-7.35 26.709q0 16.874 7.29 25.818a23.43 23.43 0 0019.07 8.941 23.044 23.044 0 0015.69-5.5q6.345-5.5 8.76-16.331l-9.68-1.464q-4.14 13.881-14.71 13.88zm-11.27-46.575a13.648 13.648 0 0110.76-5.252q7.005 0 11.53 6.3 3.12 4.33 3.76 13.116h-30.95q.45-8.911 4.9-14.165zm56.61 54.473v-93.344h-9.36v93.343h9.36zm23.75 0v-93.344h-9.36v93.343h9.36zm28.33 0v-13.056h-10.7v13.055h10.7zm54.44-8.471a21.042 21.042 0 006.66 7.481 15.542 15.542 0 008.7 2.51q9.63 0 16.84-9.323t7.21-26.518q0-11.269-3.19-19.165t-8.5-11.778a19.545 19.545 0 00-11.81-3.884 16.119 16.119 0 00-8.43 2.26 21.2 21.2 0 00-6.78 6.844v-33.3h-9.43v93.343h8.73v-8.471zm4.42-44.728q4.56-6.526 10.37-6.526 6.33 0 10.66 6.239 4.35 6.242 4.34 19.547 0 12.988-4.5 19.515t-10.31 6.526a12.339 12.339 0 01-7.78-2.738 17.386 17.386 0 01-5.43-7.959q-1.92-5.22-1.91-15.726 0-12.352 4.56-18.879zm91.14 53.2V364.06h-9.42v36.228q0 12.735-3.69 17.509a13.466 13.466 0 01-11.08 5.539 10.451 10.451 0 01-6.46-2.136 10.711 10.711 0 01-3.89-5.666q-1.05-3.534-1.05-13.976v-37.5h-9.36v41.894q0 9.36 1.56 14.772a16.87 16.87 0 006.21 8.944 19.137 19.137 0 0021.14.67 24.252 24.252 0 007.64-8.6v9.936h8.4zm34.26 1.52q10.635 0 16.77-5.99t6.15-15.691a20.037 20.037 0 00-1.9-9.024 14.962 14.962 0 00-5.33-6q-3.435-2.2-15.1-5.9-8.475-2.788-10.2-4.058a6.957 6.957 0 01-2.87-5.9 7.719 7.719 0 012.99-6.246c2-1.627 5.03-2.441 9.11-2.441q10.755 0 12.03 11.078l9.17-1.528q-.96-7-3.44-10.76a17.2 17.2 0 00-7.16-5.985 25 25 0 00-10.86-2.228q-9.81 0-15.34 5.412-5.55 5.412-5.54 14.071a19.267 19.267 0 002.04 8.977 15.963 15.963 0 005.73 6.3q3.69 2.356 14.64 5.73 7.575 2.293 9.55 3.821a7.449 7.449 0 012.86 6.239 9.909 9.909 0 01-3.33 7.672q-3.33 3.026-9.43 3.025a13.666 13.666 0 01-9.79-3.486q-3.675-3.486-4.5-10.649l-9.36 1.783q3.18 21.776 23.11 21.77zm43.36-81.683v-13.18h-9.36v13.18h9.36zm0 80.163V364.06h-9.36v67.62h9.36zm23.75 0v-36.973q0-12.237 4.01-17.273a13.044 13.044 0 0110.76-5.036 10.738 10.738 0 016.27 1.881 10.886 10.886 0 013.98 5.322q1.275 3.441 1.27 10.9v41.178h9.36V390.1q0-9.36-1.14-13.88a18.742 18.742 0 00-3.47-7.354 16.868 16.868 0 00-6.1-4.584 19.333 19.333 0 00-8.23-1.751 18.79 18.79 0 00-10.14 2.754 21.982 21.982 0 00-7.47 8.325v-9.55h-8.46v67.62h9.36zm73.28-7.9q-6.75 0-11.46-5.794t-5.29-17.191h41.39l.06-3.056q0-17.127-7.19-26.168t-17.96-9.041q-11.265 0-18.62 9.2t-7.35 26.709q0 16.874 7.29 25.818a23.417 23.417 0 0019.07 8.941 23.044 23.044 0 0015.69-5.5q6.33-5.5 8.75-16.331l-9.67-1.464q-4.14 13.881-14.71 13.88zm-11.27-46.575a13.648 13.648 0 0110.76-5.252q7.005 0 11.52 6.3 3.12 4.33 3.76 13.116h-30.94q.435-8.91 4.9-14.164zm67.04 55.993q10.635 0 16.78-5.99t6.14-15.691a19.9 19.9 0 00-1.9-9.024 14.889 14.889 0 00-5.33-6q-3.42-2.2-15.09-5.9-8.49-2.788-10.21-4.058a6.982 6.982 0 01-2.87-5.9 7.7 7.7 0 013-6.246c1.99-1.627 5.03-2.441 9.1-2.441q10.755 0 12.04 11.078l9.16-1.528q-.945-7-3.43-10.76a17.232 17.232 0 00-7.17-5.985 24.989 24.989 0 00-10.85-2.228q-9.81 0-15.35 5.412t-5.54 14.071a19.267 19.267 0 002.04 8.977 16.112 16.112 0 005.73 6.3q3.69 2.356 14.65 5.73 7.575 2.293 9.55 3.821a7.449 7.449 0 012.86 6.239 9.909 9.909 0 01-3.33 7.672q-3.345 3.026-9.44 3.025a13.658 13.658 0 01-9.78-3.486q-3.69-3.486-4.51-10.649l-9.36 1.783q3.18 21.776 23.11 21.77zm53.49 0q10.62 0 16.77-5.99t6.15-15.691a19.9 19.9 0 00-1.91-9.024 14.939 14.939 0 00-5.32-6q-3.435-2.2-15.1-5.9-8.475-2.788-10.2-4.058a6.957 6.957 0 01-2.87-5.9 7.69 7.69 0 012.99-6.246c1.99-1.627 5.03-2.441 9.1-2.441q10.77 0 12.04 11.078l9.17-1.528q-.96-7-3.44-10.76a17.2 17.2 0 00-7.16-5.985 25 25 0 00-10.86-2.228q-9.81 0-15.34 5.412-5.55 5.412-5.54 14.071a19.263 19.263 0 002.03 8.977 16.112 16.112 0 005.73 6.3q3.69 2.356 14.65 5.73 7.575 2.293 9.55 3.821a7.449 7.449 0 012.86 6.239 9.909 9.909 0 01-3.33 7.672q-3.33 3.026-9.43 3.025a13.666 13.666 0 01-9.79-3.486q-3.675-3.486-4.51-10.649l-9.36 1.783q3.195 21.776 23.12 21.77z" data-name="buy. sell. business"></path><path fill="#000" fill-rule="evenodd" d="M985.302 175.832q0-15.135 7.18-25.225t23.48-10.089a23.21 23.21 0 0112.81 3.492 29.426 29.426 0 018.92 8.926 38.267 38.267 0 015.05 12.224 58.674 58.674 0 011.55 13q0 23.676-10.09 34.538t-26 10.867q-13.965 0-22.9-3.881v-43.852zm-65.58 86.541a257.706 257.706 0 0035.7 10.09 208.853 208.853 0 0044.63 4.657q54.33 0 82.27-26.583t27.94-75.093a110.706 110.706 0 00-5.24-34.15 91.849 91.849 0 00-15.13-28.912 73.124 73.124 0 00-24.84-20.18q-14.94-7.567-33.95-7.567a71.7 71.7 0 00-9.51.776 67.925 67.925 0 00-12.03 2.91 78.972 78.972 0 00-12.81 5.628 41.159 41.159 0 00-11.45 9.313v-91.2h-65.58v250.311zm214.21 8.538h65.58v-182.4h-65.58v182.4zm91.2 0h171.14v-50.45h-84.6l83.43-90.421V88.515h-164.93v52h80.72l-85.76 90.033v40.36zM1167.812 0a32.5 32.5 0 11-32.5 32.5 32.5 32.5 0 0132.5-32.5z"></path><path fill="#000" fill-rule="evenodd" d="M-.011 270.911h67.137v-88.093h28.718l43.852 88.093h73.734l-55.494-99.347a86.372 86.372 0 0029.881-30.076q11.251-18.819 11.255-44.435 0-20.957-6.6-36.867A71.713 71.713 0 00173.847 33.6a79.864 79.864 0 00-28.912-16.1q-16.881-5.43-37.837-5.433H-.011v258.844zm67.137-142.036V66.4h32.986q14.745 0 22.9 8.538t8.149 23.284q0 13.971-8.537 22.315t-22.12 8.343H67.126zm165.705 142.036h65.581v-182.4h-65.581v182.4zm102.449 62.48a111.95 111.95 0 0037.256 15.523 190.964 190.964 0 0040.359 4.269q48.507 0 73.737-22.509t25.22-74.51V99.77a257 257 0 00-40.94-11.255 231.2 231.2 0 00-42.495-3.88 133.721 133.721 0 00-42.882 6.6 97.985 97.985 0 00-33.762 19.016 83 83 0 00-21.927 31.046q-7.767 18.627-7.761 42.3a105.637 105.637 0 005.433 34.733 76.368 76.368 0 0015.718 26.97 69.569 69.569 0 0025.419 17.463q15.135 6.213 34.539 6.209a116.6 116.6 0 0022.9-2.328 42.315 42.315 0 0020.568-10.478v6.209q0 21.337-9.9 30.464t-30.076 9.12a81.117 81.117 0 01-24.254-3.687 94.574 94.574 0 01-22.315-10.284zm111.766-147.469q0 16.3-7.955 23.867t-20.763 7.567q-13.2 0-21.926-8.925t-8.731-27.166a64.839 64.839 0 012.134-16.881 37.147 37.147 0 016.791-13.777 33.436 33.436 0 0112.031-9.313 40.407 40.407 0 0117.463-3.493 65.909 65.909 0 0120.956 3.493v44.628zm95.076 84.989h65.58V173.5a48.392 48.392 0 011.36-11.448 27.776 27.776 0 014.85-10.284 24.159 24.159 0 019.31-7.374q5.835-2.711 14.75-2.716 12.42 0 18.82 8.343t6.41 23.091v97.795h65.58V156.041q0-19.011-5.24-32.793a58.978 58.978 0 00-14.55-22.508 57.7 57.7 0 00-21.73-12.807 85.489 85.489 0 00-26.78-4.074 106.37 106.37 0 00-11.84.776 75.77 75.77 0 00-14.16 3.1 65.181 65.181 0 00-14.36 6.6 49.453 49.453 0 00-12.42 10.866V12.065h-65.58v258.846zm227.8-76.839a145.811 145.811 0 003.68 33.762 65.926 65.926 0 0012.61 26.584q8.925 11.06 23.87 17.269t37.06 6.209a91.291 91.291 0 0031.05-5.433 98.379 98.379 0 0027.55-15.135l-25.61-40.36a69.907 69.907 0 01-11.06 6.21 29.46 29.46 0 01-12.23 2.716q-21.345 0-21.34-22.508v-64.421h45.02v-50.45h-45.02V37.678h-65.58v50.837h-26.78v50.45h26.78v55.107zM266.812 0a32.5 32.5 0 11-32.5 32.5 32.5 32.5 0 0132.5-32.5z" data-name="Ellipse 1 copy"></path></symbol>
    <symbol  id="logo_black_notag" viewBox="0 0 1397.782 357.12"><path fill="#000" fill-rule="evenodd" d="M985.302 175.832q0-15.135 7.18-25.225t23.48-10.089a23.21 23.21 0 0112.81 3.492 29.426 29.426 0 018.92 8.926 38.267 38.267 0 015.05 12.224 58.674 58.674 0 011.55 13q0 23.676-10.09 34.538t-26 10.867q-13.965 0-22.9-3.881v-43.852zm-65.58 86.541a257.706 257.706 0 0035.7 10.09 208.853 208.853 0 0044.63 4.657q54.33 0 82.27-26.583t27.94-75.093a110.706 110.706 0 00-5.24-34.15 91.849 91.849 0 00-15.13-28.912 73.124 73.124 0 00-24.84-20.18q-14.94-7.567-33.95-7.567a71.7 71.7 0 00-9.51.776 67.925 67.925 0 00-12.03 2.91 78.972 78.972 0 00-12.81 5.628 41.159 41.159 0 00-11.45 9.313v-91.2h-65.58v250.311zm214.21 8.538h65.58v-182.4h-65.58v182.4zm91.2 0h171.14v-50.45h-84.6l83.43-90.421V88.515h-164.93v52h80.72l-85.76 90.033v40.36zM1167.812 0a32.5 32.5 0 11-32.5 32.5 32.5 32.5 0 0132.5-32.5z"></path><path fill="#000" fill-rule="evenodd" d="M-.011 270.911h67.137v-88.093h28.718l43.852 88.093h73.734l-55.494-99.347a86.372 86.372 0 0029.881-30.076q11.251-18.819 11.255-44.435 0-20.957-6.6-36.867A71.713 71.713 0 00173.847 33.6a79.864 79.864 0 00-28.912-16.1q-16.881-5.43-37.837-5.433H-.011v258.844zm67.137-142.036V66.4h32.986q14.745 0 22.9 8.538t8.149 23.284q0 13.971-8.537 22.315t-22.12 8.343H67.126zm165.705 142.036h65.581v-182.4h-65.581v182.4zm102.449 62.48a111.95 111.95 0 0037.256 15.523 190.964 190.964 0 0040.359 4.269q48.507 0 73.737-22.509t25.22-74.51V99.77a257 257 0 00-40.94-11.255 231.2 231.2 0 00-42.495-3.88 133.721 133.721 0 00-42.882 6.6 97.985 97.985 0 00-33.762 19.016 83 83 0 00-21.927 31.046q-7.767 18.627-7.761 42.3a105.637 105.637 0 005.433 34.733 76.368 76.368 0 0015.718 26.97 69.569 69.569 0 0025.419 17.463q15.135 6.213 34.539 6.209a116.6 116.6 0 0022.9-2.328 42.315 42.315 0 0020.568-10.478v6.209q0 21.337-9.9 30.464t-30.076 9.12a81.117 81.117 0 01-24.254-3.687 94.574 94.574 0 01-22.315-10.284zm111.766-147.469q0 16.3-7.955 23.867t-20.763 7.567q-13.2 0-21.926-8.925t-8.731-27.166a64.839 64.839 0 012.134-16.881 37.147 37.147 0 016.791-13.777 33.436 33.436 0 0112.031-9.313 40.407 40.407 0 0117.463-3.493 65.909 65.909 0 0120.956 3.493v44.628zm95.076 84.989h65.58V173.5a48.392 48.392 0 011.36-11.448 27.776 27.776 0 014.85-10.284 24.159 24.159 0 019.31-7.374q5.835-2.711 14.75-2.716 12.42 0 18.82 8.343t6.41 23.091v97.795h65.58V156.041q0-19.011-5.24-32.793a58.978 58.978 0 00-14.55-22.508 57.7 57.7 0 00-21.73-12.807 85.489 85.489 0 00-26.78-4.074 106.37 106.37 0 00-11.84.776 75.77 75.77 0 00-14.16 3.1 65.181 65.181 0 00-14.36 6.6 49.453 49.453 0 00-12.42 10.866V12.065h-65.58v258.846zm227.8-76.839a145.811 145.811 0 003.68 33.762 65.926 65.926 0 0012.61 26.584q8.925 11.06 23.87 17.269t37.06 6.209a91.291 91.291 0 0031.05-5.433 98.379 98.379 0 0027.55-15.135l-25.61-40.36a69.907 69.907 0 01-11.06 6.21 29.46 29.46 0 01-12.23 2.716q-21.345 0-21.34-22.508v-64.421h45.02v-50.45h-45.02V37.678h-65.58v50.837h-26.78v50.45h26.78v55.107zM266.812 0a32.5 32.5 0 11-32.5 32.5 32.5 32.5 0 0132.5-32.5z" data-name="Ellipse 1 copy"></path></symbol>

    <symbol id="dropdown_arrow" viewBox="0 0 306 306"><polygon points="270.3 58.7 153 176 35.7 58.7 0 94.4 153 247.4 306 94.4 "></polygon></symbol>

    <symbol id="back_arrow" viewBox="0 0 19 30"><path style="fill-rule:evenodd;" d="M9.881,15.01l9.4-9.363A2.365,2.365,0,0,0,20,3.9a2.365,2.365,0,0,0-.716-1.743L17.834,0.715a2.508,2.508,0,0,0-3.5,0L1.715,13.256a2.481,2.481,0,0,0,0,3.487L14.331,29.285a2.507,2.507,0,0,0,3.5,0l1.451-1.445A2.353,2.353,0,0,0,20,26.106a2.418,2.418,0,0,0-.716-1.753Z" transform="translate(-1)"></path></symbol>

    <symbol id="search" viewBox="0 0 30 30"><path d="M29.265,25.719L22.748,19.2c-0.035-.035-0.075-0.059-0.111-0.091a12.337,12.337,0,1,0-3.525,3.525c0.032,0.036.056,0.077,0.091,0.111l6.517,6.517A2.507,2.507,0,0,0,29.265,25.719ZM12.333,20.391a8.058,8.058,0,1,1,8.058-8.058A8.058,8.058,0,0,1,12.333,20.391Z"></path></symbol>

    <symbol id="tick" viewBox="0 0 16 12.938"><path fill-rule="evenodd" d="M4.7 9.593L1.679 6.572.018 8.233l3.987 3.987.728.728L15.988 1.693 14.294 0z" data-name="Forma 1"></path></symbol>

    <symbol id="heart" viewBox="0 -28 512.001 512"><path d="m256 455.515625c-7.289062 0-14.316406-2.640625-19.792969-7.4375-20.683593-18.085937-40.625-35.082031-58.21875-50.074219l-.089843-.078125c-51.582032-43.957031-96.125-81.917969-127.117188-119.3125-34.644531-41.804687-50.78125-81.441406-50.78125-124.742187 0-42.070313 14.425781-80.882813 40.617188-109.292969 26.503906-28.746094 62.871093-44.578125 102.414062-44.578125 29.554688 0 56.621094 9.34375 80.445312 27.769531 12.023438 9.300781 22.921876 20.683594 32.523438 33.960938 9.605469-13.277344 20.5-24.660157 32.527344-33.960938 23.824218-18.425781 50.890625-27.769531 80.445312-27.769531 39.539063 0 75.910156 15.832031 102.414063 44.578125 26.191406 28.410156 40.613281 67.222656 40.613281 109.292969 0 43.300781-16.132812 82.9375-50.777344 124.738281-30.992187 37.398437-75.53125 75.355469-127.105468 119.308594-17.625 15.015625-37.597657 32.039062-58.328126 50.167969-5.472656 4.789062-12.503906 7.429687-19.789062 7.429687zm-112.96875-425.523437c-31.066406 0-59.605469 12.398437-80.367188 34.914062-21.070312 22.855469-32.675781 54.449219-32.675781 88.964844 0 36.417968 13.535157 68.988281 43.882813 105.605468 29.332031 35.394532 72.960937 72.574219 123.476562 115.625l.09375.078126c17.660156 15.050781 37.679688 32.113281 58.515625 50.332031 20.960938-18.253907 41.011719-35.34375 58.707031-50.417969 50.511719-43.050781 94.136719-80.222656 123.46875-115.617188 30.34375-36.617187 43.878907-69.1875 43.878907-105.605468 0-34.515625-11.605469-66.109375-32.675781-88.964844-20.757813-22.515625-49.300782-34.914062-80.363282-34.914062-22.757812 0-43.652344 7.234374-62.101562 21.5-16.441406 12.71875-27.894532 28.796874-34.609375 40.046874-3.453125 5.785157-9.53125 9.238282-16.261719 9.238282s-12.808594-3.453125-16.261719-9.238282c-6.710937-11.25-18.164062-27.328124-34.609375-40.046874-18.449218-14.265626-39.34375-21.5-62.097656-21.5zm0 0"/></symbol>

    <symbol id="heart_fill" viewBox="0 -28 512.00002 512"><path d="m471.382812 44.578125c-26.503906-28.746094-62.871093-44.578125-102.410156-44.578125-29.554687 0-56.621094 9.34375-80.449218 27.769531-12.023438 9.300781-22.917969 20.679688-32.523438 33.960938-9.601562-13.277344-20.5-24.660157-32.527344-33.960938-23.824218-18.425781-50.890625-27.769531-80.445312-27.769531-39.539063 0-75.910156 15.832031-102.414063 44.578125-26.1875 28.410156-40.613281 67.222656-40.613281 109.292969 0 43.300781 16.136719 82.9375 50.78125 124.742187 30.992188 37.394531 75.535156 75.355469 127.117188 119.3125 17.613281 15.011719 37.578124 32.027344 58.308593 50.152344 5.476563 4.796875 12.503907 7.4375 19.792969 7.4375 7.285156 0 14.316406-2.640625 19.785156-7.429687 20.730469-18.128907 40.707032-35.152344 58.328125-50.171876 51.574219-43.949218 96.117188-81.90625 127.109375-119.304687 34.644532-41.800781 50.777344-81.4375 50.777344-124.742187 0-42.066407-14.425781-80.878907-40.617188-109.289063zm0 0"/></symbol>

    <symbol id="email" viewBox="0 0 512 512"><path d="M480 80H32C14.336 80 0 94.336 0 112v18.208l256 108.416 256-108.448V112c0-17.664-14.336-32-32-32z"/><path d="M262.24 270.72c-1.984.864-4.128 1.28-6.24 1.28s-4.256-.416-6.24-1.28L0 164.96V400c0 17.664 14.336 32 32 32h448c17.664 0 32-14.336 32-32V164.96L262.24 270.72z"/></symbol>

    <symbol id="telephone" viewBox="0 0 513.64 513.64"><path d="M499.66 376.96l-71.68-71.68c-25.6-25.6-69.12-15.359-79.36 17.92-7.68 23.041-33.28 35.841-56.32 30.72-51.2-12.8-120.32-79.36-133.12-133.12-7.68-23.041 7.68-48.641 30.72-56.32 33.28-10.24 43.52-53.76 17.92-79.36l-71.68-71.68c-20.48-17.92-51.2-17.92-69.12 0L18.38 62.08c-48.64 51.2 5.12 186.88 125.44 307.2s256 176.641 307.2 125.44l48.64-48.64c17.921-20.48 17.921-51.2 0-69.12z"/></symbol>

    <symbol id="location" viewBox="-119 -21 682 682.667"><path d="M216.21 0C93.548 0-6.25 99.797-6.25 222.46-6.25 376.638 216.43 640 216.43 640s222.242-270.945 222.242-417.54C438.672 99.798 338.879 0 216.21 0zm67.122 287.598c-18.508 18.504-42.812 27.757-67.121 27.757-24.305 0-48.617-9.253-67.117-27.757-37.012-37.008-37.012-97.227 0-134.239 17.922-17.93 41.761-27.804 67.117-27.804 25.355 0 49.191 9.879 67.121 27.804 37.012 37.012 37.012 97.23 0 134.239zm0 0"/></symbol>

    <symbol id="website" viewBox="0 0 26 26"><g><path d="M8.083 11.222L6.419 15a.276.276 0 01-.257.154H5.31c-.113 0-.216-.061-.256-.154l-.79-1.803a15.454 15.454 0 01-.213-.517c-.073.186-.148.359-.223.525l-.833 1.8a.277.277 0 01-.255.149h-.852a.276.276 0 01-.259-.158L.072 11.217c-.03-.074-.018-.156.034-.221s.135-.103.225-.103h.959c.121 0 .227.069.263.169l.684 1.92c.057.162.11.315.159.461.06-.146.125-.3.194-.463l.842-1.932a.277.277 0 01.256-.155h.792c.115 0 .217.063.258.157l.798 1.89c.072.17.136.329.195.479.049-.142.106-.296.171-.465l.737-1.898a.275.275 0 01.26-.164h.926a.29.29 0 01.227.104.22.22 0 01.031.226zm8.922 0L15.341 15a.276.276 0 01-.256.154h-.854a.276.276 0 01-.256-.154l-.789-1.803a13.647 13.647 0 01-.214-.517c-.073.186-.148.359-.223.525l-.833 1.8a.276.276 0 01-.255.149h-.853a.277.277 0 01-.259-.158l-1.557-3.779a.218.218 0 01.034-.221.291.291 0 01.225-.103h.959c.121 0 .227.069.263.169l.683 1.92.161.461c.059-.146.123-.3.192-.463l.843-1.932a.275.275 0 01.256-.155h.792c.115 0 .218.063.258.157l.799 1.89c.071.17.135.329.193.479.051-.142.106-.296.172-.465l.737-1.898c.038-.098.144-.164.261-.164h.926c.092 0 .177.039.227.104a.218.218 0 01.032.226zm8.921 0L24.263 15a.277.277 0 01-.257.154h-.853c-.113 0-.216-.061-.256-.154l-.789-1.803a13.647 13.647 0 01-.214-.517c-.073.186-.149.359-.224.525l-.833 1.8a.277.277 0 01-.255.149h-.852a.277.277 0 01-.26-.158l-1.557-3.779c-.029-.074-.019-.156.033-.221s.136-.103.226-.103h.96c.121 0 .227.069.262.169l.684 1.92.16.461c.059-.146.123-.3.192-.463l.843-1.932a.278.278 0 01.257-.155h.791c.115 0 .218.063.258.157l.798 1.89c.072.17.137.329.196.479.049-.142.106-.296.171-.465l.738-1.898c.037-.098.142-.164.26-.164h.926c.092 0 .176.039.227.104a.224.224 0 01.031.226zM2.71 9c.283-.718.637-1.401 1.057-2.037.062.012.12.037.185.037h1.88a18.675 18.675 0 00-.49 2h2.055c.155-.699.335-1.376.562-2h9.986c.227.624.407 1.301.562 2h2.055a18.675 18.675 0 00-.49-2h1.88c.065 0 .123-.025.186-.037.418.636.773 1.319 1.056 2.037h2.121c-1.691-5.216-6.591-9-12.363-9S2.28 3.784.588 9H2.71zm17.768-4H19.29a12.54 12.54 0 00-.851-1.519c.74.428 1.422.938 2.039 1.519zm-7.526-3c1.551 0 2.983 1.154 4.062 3H8.89c1.079-1.846 2.511-3 4.062-3zM7.463 3.481c-.308.469-.592.976-.85 1.519H5.426a11.074 11.074 0 012.037-1.519zM23.194 17c-.283.719-.638 1.4-1.057 2.037-.062-.012-.12-.037-.185-.037h-1.881c.199-.634.355-1.309.49-2h-2.055a15.848 15.848 0 01-.562 2H7.959a16.018 16.018 0 01-.562-2H5.343c.135.691.291 1.366.49 2H3.952c-.065 0-.123.025-.185.037A11.107 11.107 0 012.71 17H.588c1.692 5.216 6.592 9 12.364 9s10.672-3.784 12.363-9h-2.121zM5.426 21h1.188c.258.543.542 1.051.85 1.519A11.048 11.048 0 015.426 21zm7.526 3c-1.551 0-2.983-1.154-4.062-3h8.123c-1.078 1.846-2.51 3-4.061 3zm5.488-1.481c.309-.468.593-.976.851-1.519h1.188c-.618.581-1.3 1.091-2.039 1.519z"/></g></symbol>

    <symbol id="share" viewBox="0 0 16 18"><path d="M13 12a3 3 0 0 0-1.8.6L6 9.6a2.8 2.8 0 0 0 0-1l5.2-3.2A3 3 0 1 0 10 3a3 3 0 0 0 0 .5l-5.2 3a3 3 0 1 0 0 5l5.2 3a3 3 0 0 0 0 .5 3 3 0 1 0 3-3z"></path></symbol>

    <symbol id="phone" viewBox="0 0 35 35"><path d="M25.302 0H9.698a2.37 2.37 0 00-2.364 2.364v30.271A2.371 2.371 0 009.698 35h15.604a2.37 2.37 0 002.364-2.364V2.364A2.37 2.37 0 0025.302 0zM15.004 1.704h4.992a.286.286 0 010 .573h-4.992a.286.286 0 110-.573zM17.5 33.818a1.182 1.182 0 110-2.364 1.182 1.182 0 010 2.364zm8.521-3.193H8.979V3.749h17.042v26.876z"/></symbol>

    <symbol id="facebook" viewBox="0 0 512 512"><path fill="#4267b2" d="M483.738 0h-455.5C12.641.008-.004 12.66 0 28.262v455.5C.008 499.359 12.66 512.004 28.262 512h455.476c15.606.004 28.258-12.645 28.262-28.25V28.238C511.992 12.641 499.34-.004 483.738 0zm0 0"/><path fill="#fff" d="M353.5 512V314h66.75l10-77.5H353.5v-49.36c0-22.386 6.215-37.64 38.316-37.64H432.5V80.371c-7.078-.941-31.363-3.047-59.621-3.047-59 0-99.379 36-99.379 102.14V236.5H207V314h66.5v198zm0 0"/></symbol>

    <symbol id="twitter" viewBox="0 0 512 512"><path d="M512 97.248c-19.04 8.352-39.328 13.888-60.48 16.576 21.76-12.992 38.368-33.408 46.176-58.016-20.288 12.096-42.688 20.64-66.56 25.408C411.872 60.704 384.416 48 354.464 48c-58.112 0-104.896 47.168-104.896 104.992 0 8.32.704 16.32 2.432 23.936-87.264-4.256-164.48-46.08-216.352-109.792-9.056 15.712-14.368 33.696-14.368 53.056 0 36.352 18.72 68.576 46.624 87.232-16.864-.32-33.408-5.216-47.424-12.928v1.152c0 51.008 36.384 93.376 84.096 103.136-8.544 2.336-17.856 3.456-27.52 3.456-6.72 0-13.504-.384-19.872-1.792 13.6 41.568 52.192 72.128 98.08 73.12-35.712 27.936-81.056 44.768-130.144 44.768-8.608 0-16.864-.384-25.12-1.44C46.496 446.88 101.6 464 161.024 464c193.152 0 298.752-160 298.752-298.688 0-4.64-.16-9.12-.384-13.568 20.832-14.784 38.336-33.248 52.608-54.496z"/></symbol>

    <symbol id="whatsapp" viewBox="0 0 90 90"><path d="M90 43.8c0 24.3-19.8 44-44.2 44-7.7 0-15-2-21.3-5.6L0 90l8-23.5C4 60 1.6 52 1.6 43.8 1.6 19.6 21.4 0 45.8 0 70.2 0 90 19.6 90 43.8zM45.8 7c-20.5 0-37 16.5-37 36.8 0 8 2.5 15.6 7 21.7L11 79l14.4-4.4c5.8 4 13 6 20.4 6C66.3 80.7 83 64.3 83 44S66.3 7 45.8 7zM68 54c0-.5-1-.8-2-1.3-1-.6-6.4-3.2-7.3-3.5-1-.4-1.8-.5-2.5.5L52.8 54c-.6.7-1.3.7-2.4.2-1-.5-4.5-1.7-8.7-5.3-3.2-3-5.4-6.5-6-7.6-.6-1 0-1.6.5-2.2.5-.4 1-1.2 1.6-1.8.5-.7.7-1 1-1.8.5-.7.3-1.4 0-2l-3.3-8c-1-2-1.8-1.7-2.5-1.7l-2-.2c-.8 0-2 .3-3 1.4-1 1-3.7 3.6-3.7 9 0 5.2 3.8 10.3 4.4 11 .5.8 7.5 12 18.5 16.3 11 4.3 11 2.8 13 2.7 2-.2 6.4-2.6 7.3-5.2 1-2.5 1-4.6.6-5z"/></symbol>

    <symbol id="pictures" viewBox="0 0 24 24"><circle cx="12" cy="12" r="3.2"/><path d="M9 2L7.17 4H4c-1.1 0-2 .9-2 2v12c0 1.1.9 2 2 2h16c1.1 0 2-.9 2-2V6c0-1.1-.9-2-2-2h-3.17L15 2H9zm3 15c-2.76 0-5-2.24-5-5s2.24-5 5-5 5 2.24 5 5-2.24 5-5 5z"/></symbol>

</svg>
